STARTFONT 2.1
FONT -gbdfed-monument-Normal-R-Normal--7-70-20-20-M-5-FontSpecific-0
SIZE 7 20 20
FONTBOUNDINGBOX 6 6 0 -1
STARTPROPERTIES 11
POINT_SIZE 70
PIXEL_SIZE 7
RESOLUTION_X 20
RESOLUTION_Y 20
FONT_ASCENT 5
FONT_DESCENT 2
AVERAGE_WIDTH 5
SPACING "P"
FAMILY_NAME "monument"
WEIGHT_NAME "Normal"
_GBDFED_INFO "Edited with gbdfed 1.6."
ENDPROPERTIES
CHARS 56
STARTCHAR char32
ENCODING 32
SWIDTH 3085 0
DWIDTH 6 0
BBX 0 0 0 0
BITMAP
ENDCHAR
STARTCHAR char33
ENCODING 33
SWIDTH 3085 0
DWIDTH 6 0
BBX 2 5 1 0
BITMAP
C0
C0
C0
00
C0
ENDCHAR
STARTCHAR char34
ENCODING 34
SWIDTH 3085 0
DWIDTH 6 0
BBX 3 3 0 1
BITMAP
40
A0
40
ENDCHAR
STARTCHAR char37
ENCODING 37
SWIDTH 3085 0
DWIDTH 6 0
BBX 4 5 0 0
BITMAP
90
30
60
C0
90
ENDCHAR
STARTCHAR char42
ENCODING 42
SWIDTH 3085 0
DWIDTH 6 0
BBX 4 5 0 0
BITMAP
90
60
F0
60
90
ENDCHAR
STARTCHAR char45
ENCODING 45
SWIDTH 2057 0
DWIDTH 4 0
BBX 4 1 0 2
BITMAP
F0
ENDCHAR
STARTCHAR char46
ENCODING 46
SWIDTH 1542 0
DWIDTH 3 0
BBX 3 2 0 0
BITMAP
60
60
ENDCHAR
STARTCHAR char47
ENCODING 47
SWIDTH 3085 0
DWIDTH 6 0
BBX 4 5 0 0
BITMAP
10
30
60
C0
80
ENDCHAR
STARTCHAR char48
ENCODING 48
SWIDTH 3085 0
DWIDTH 6 0
BBX 4 5 0 0
BITMAP
F0
D0
D0
D0
F0
ENDCHAR
STARTCHAR char49
ENCODING 49
SWIDTH 3085 0
DWIDTH 6 0
BBX 4 5 0 0
BITMAP
60
E0
60
60
F0
ENDCHAR
STARTCHAR char50
ENCODING 50
SWIDTH 3085 0
DWIDTH 6 0
BBX 4 5 0 0
BITMAP
F0
30
F0
C0
F0
ENDCHAR
STARTCHAR char51
ENCODING 51
SWIDTH 3085 0
DWIDTH 6 0
BBX 4 5 0 0
BITMAP
F0
30
F0
30
F0
ENDCHAR
STARTCHAR char52
ENCODING 52
SWIDTH 3085 0
DWIDTH 6 0
BBX 4 5 0 0
BITMAP
B0
B0
F0
30
30
ENDCHAR
STARTCHAR char53
ENCODING 53
SWIDTH 3085 0
DWIDTH 6 0
BBX 4 5 0 0
BITMAP
F0
C0
F0
30
F0
ENDCHAR
STARTCHAR char54
ENCODING 54
SWIDTH 3085 0
DWIDTH 6 0
BBX 4 5 0 0
BITMAP
F0
C0
F0
D0
F0
ENDCHAR
STARTCHAR char55
ENCODING 55
SWIDTH 3085 0
DWIDTH 6 0
BBX 4 5 0 0
BITMAP
F0
30
30
30
30
ENDCHAR
STARTCHAR char56
ENCODING 56
SWIDTH 3085 0
DWIDTH 6 0
BBX 4 5 0 0
BITMAP
F0
B0
F0
B0
F0
ENDCHAR
STARTCHAR char57
ENCODING 57
SWIDTH 3085 0
DWIDTH 6 0
BBX 4 5 0 0
BITMAP
F0
B0
F0
30
F0
ENDCHAR
STARTCHAR char58
ENCODING 58
SWIDTH 3085 0
DWIDTH 6 0
BBX 2 5 0 0
BITMAP
C0
C0
00
C0
C0
ENDCHAR
STARTCHAR char59
ENCODING 59
SWIDTH 3085 0
DWIDTH 6 0
BBX 4 5 0 0
BITMAP
60
90
90
B0
F0
ENDCHAR
STARTCHAR char59
ENCODING 60
SWIDTH 3085 0
DWIDTH 6 0
BBX 4 5 0 0
BITMAP
60
90
90
F0
F0
ENDCHAR
STARTCHAR char59
ENCODING 61
SWIDTH 3085 0
DWIDTH 6 0
BBX 4 5 0 0
BITMAP
60
90
B0
F0
F0
ENDCHAR
STARTCHAR char59
ENCODING 62
SWIDTH 3085 0
DWIDTH 6 0
BBX 4 5 0 0
BITMAP
60
90
F0
F0
F0
ENDCHAR
STARTCHAR char63
ENCODING 63
SWIDTH 3085 0
DWIDTH 6 0
BBX 4 5 0 0
BITMAP
60
B0
F0
F0
F0
ENDCHAR
STARTCHAR char64
ENCODING 64
SWIDTH 3085 0
DWIDTH 6 0
BBX 4 5 0 0
BITMAP
60
F0
F0
F0
F0
ENDCHAR
STARTCHAR char65
ENCODING 65
SWIDTH 3085 0
DWIDTH 6 0
BBX 4 5 0 0
BITMAP
70
B0
F0
B0
B0
ENDCHAR
STARTCHAR char66
ENCODING 66
SWIDTH 3085 0
DWIDTH 6 0
BBX 4 5 0 0
BITMAP
E0
D0
F0
D0
F0
ENDCHAR
STARTCHAR char67
ENCODING 67
SWIDTH 3085 0
DWIDTH 6 0
BBX 4 5 0 0
BITMAP
70
C0
C0
C0
F0
ENDCHAR
STARTCHAR char68
ENCODING 68
SWIDTH 3085 0
DWIDTH 6 0
BBX 4 5 0 0
BITMAP
E0
D0
D0
D0
F0
ENDCHAR
STARTCHAR char69
ENCODING 69
SWIDTH 3085 0
DWIDTH 6 0
BBX 4 5 0 0
BITMAP
F0
C0
E0
C0
F0
ENDCHAR
STARTCHAR char70
ENCODING 70
SWIDTH 3085 0
DWIDTH 6 0
BBX 4 5 0 0
BITMAP
F0
C0
F0
C0
C0
ENDCHAR
STARTCHAR char71
ENCODING 71
SWIDTH 3085 0
DWIDTH 6 0
BBX 4 5 0 0
BITMAP
70
C0
D0
D0
F0
ENDCHAR
STARTCHAR char72
ENCODING 72
SWIDTH 3085 0
DWIDTH 6 0
BBX 4 5 0 0
BITMAP
D0
D0
F0
D0
D0
ENDCHAR
STARTCHAR char73
ENCODING 73
SWIDTH 3085 0
DWIDTH 6 0
BBX 4 5 0 0
BITMAP
F0
60
60
60
F0
ENDCHAR
STARTCHAR char74
ENCODING 74
SWIDTH 3085 0
DWIDTH 6 0
BBX 4 5 0 0
BITMAP
F0
30
30
B0
70
ENDCHAR
STARTCHAR char75
ENCODING 75
SWIDTH 3085 0
DWIDTH 6 0
BBX 4 5 0 0
BITMAP
D0
D0
E0
D0
D0
ENDCHAR
STARTCHAR char76
ENCODING 76
SWIDTH 3085 0
DWIDTH 6 0
BBX 4 5 0 0
BITMAP
C0
C0
C0
C0
F0
ENDCHAR
STARTCHAR char77
ENCODING 77
SWIDTH 3085 0
DWIDTH 6 0
BBX 4 5 0 0
BITMAP
50
F0
F0
D0
D0
ENDCHAR
STARTCHAR char78
ENCODING 78
SWIDTH 3085 0
DWIDTH 6 0
BBX 4 5 0 0
BITMAP
90
D0
F0
B0
90
ENDCHAR
STARTCHAR char79
ENCODING 79
SWIDTH 3085 0
DWIDTH 6 0
BBX 4 5 0 0
BITMAP
70
D0
D0
D0
F0
ENDCHAR
STARTCHAR char80
ENCODING 80
SWIDTH 3085 0
DWIDTH 6 0
BBX 4 5 0 0
BITMAP
E0
D0
F0
C0
C0
ENDCHAR
STARTCHAR char81
ENCODING 81
SWIDTH 3085 0
DWIDTH 6 0
BBX 4 5 0 0
BITMAP
70
D0
D0
E0
30
ENDCHAR
STARTCHAR char82
ENCODING 82
SWIDTH 3085 0
DWIDTH 6 0
BBX 4 5 0 0
BITMAP
E0
D0
F0
E0
D0
ENDCHAR
STARTCHAR char83
ENCODING 83
SWIDTH 3085 0
DWIDTH 6 0
BBX 4 5 0 0
BITMAP
70
C0
F0
30
F0
ENDCHAR
STARTCHAR char84
ENCODING 84
SWIDTH 3085 0
DWIDTH 6 0
BBX 4 5 0 0
BITMAP
F0
60
60
60
60
ENDCHAR
STARTCHAR char85
ENCODING 85
SWIDTH 3085 0
DWIDTH 6 0
BBX 4 5 0 0
BITMAP
B0
B0
B0
B0
E0
ENDCHAR
STARTCHAR char86
ENCODING 86
SWIDTH 3085 0
DWIDTH 6 0
BBX 4 5 0 0
BITMAP
B0
B0
B0
60
40
ENDCHAR
STARTCHAR char87
ENCODING 87
SWIDTH 3085 0
DWIDTH 6 0
BBX 4 5 0 0
BITMAP
B0
B0
F0
F0
A0
ENDCHAR
STARTCHAR char88
ENCODING 88
SWIDTH 3085 0
DWIDTH 6 0
BBX 4 5 0 0
BITMAP
B0
B0
60
D0
D0
ENDCHAR
STARTCHAR char89
ENCODING 89
SWIDTH 3085 0
DWIDTH 6 0
BBX 4 5 0 0
BITMAP
B0
B0
60
60
60
ENDCHAR
STARTCHAR char90
ENCODING 90
SWIDTH 3085 0
DWIDTH 6 0
BBX 4 5 0 0
BITMAP
F0
30
60
C0
F0
ENDCHAR
STARTCHAR char91
ENCODING 91
SWIDTH 3085 0
DWIDTH 6 0
BBX 4 5 0 0
BITMAP
20
40
F0
20
40
ENDCHAR
STARTCHAR char92
ENCODING 92
SWIDTH 3085 0
DWIDTH 6 0
BBX 5 5 0 0
BITMAP
20
50
50
F8
D8
ENDCHAR
STARTCHAR char93
ENCODING 93
SWIDTH 3085 0
DWIDTH 6 0
BBX 5 5 0 0
BITMAP
50
F8
F8
70
20
ENDCHAR
STARTCHAR char94
ENCODING 95
SWIDTH 3600 0
DWIDTH 7 0
BBX 6 5 0 0
BITMAP
C0
E0
F8
84
FC
ENDCHAR
STARTCHAR char96
ENCODING 96
SWIDTH 3600 0
DWIDTH 7 0
BBX 6 6 0 -1
BITMAP
B0
58
68
F4
08
34
ENDCHAR
ENDFONT
